<svg width="16" height="16" viewBox="0 0 16 16" fill="none" xmlns="http://www.w3.org/2000/svg">
<path fill-rule="evenodd" clip-rule="evenodd" d="M7.5894 0.807424C7.83014 0.620182 8.16725 0.620182 8.40799 0.807424L14.408 5.47409C14.5704 5.60039 14.6654 5.7946 14.6654 6.00033V13.3337C14.6654 13.8641 14.4547 14.3728 14.0796 14.7479C13.7045 15.1229 13.1958 15.3337 12.6654 15.3337H3.33203C2.8016 15.3337 2.29289 15.1229 1.91782 14.7479C1.54274 14.3728 1.33203 13.8641 1.33203 13.3337V6.00033C1.33203 5.7946 1.42701 5.60039 1.5894 5.47409L7.5894 0.807424ZM6.66536 14.0003H9.33203V8.66699H6.66536V14.0003ZM10.6654 14.0003V8.00033C10.6654 7.63213 10.3669 7.33366 9.9987 7.33366H5.9987C5.63051 7.33366 5.33203 7.63213 5.33203 8.00033V14.0003H3.33203C3.15522 14.0003 2.98565 13.9301 2.86063 13.8051C2.7356 13.68 2.66536 13.5105 2.66536 13.3337V6.32638L7.9987 2.17823L13.332 6.32638V13.3337C13.332 13.5105 13.2618 13.68 13.1368 13.8051C13.0117 13.9301 12.8422 14.0003 12.6654 14.0003H10.6654Z" fill="#505152"/>
</svg>
