<svg width="20" height="20" viewBox="0 0 20 20" fill="none" xmlns="http://www.w3.org/2000/svg">
<g id="layers" clip-path="url(#clip0_5900_12792)">
<path id="Vector (Stroke)" fill-rule="evenodd" clip-rule="evenodd" d="M9.6262 0.921962C9.86081 0.804659 10.137 0.804659 10.3716 0.921962L18.7049 5.08863C18.9872 5.22979 19.1655 5.51834 19.1655 5.83398C19.1655 6.14963 18.9872 6.43818 18.7049 6.57934L10.3716 10.746C10.137 10.8633 9.86081 10.8633 9.6262 10.746L1.29287 6.57934C1.01055 6.43818 0.832214 6.14963 0.832214 5.83398C0.832214 5.51834 1.01055 5.22979 1.29287 5.08863L9.6262 0.921962ZM3.52894 5.83398L9.99888 9.06896L16.4688 5.83398L9.99888 2.59901L3.52894 5.83398ZM0.920191 9.62797C1.12602 9.21632 1.62658 9.04947 2.03823 9.25529L9.99888 13.2356L17.9595 9.25529C18.3712 9.04947 18.8717 9.21632 19.0776 9.62797C19.2834 10.0396 19.1165 10.5402 18.7049 10.746L10.3716 14.9127C10.137 15.03 9.86081 15.03 9.6262 14.9127L1.29287 10.746C0.88122 10.5402 0.714367 10.0396 0.920191 9.62797ZM0.920191 13.7946C1.12602 13.383 1.62658 13.2161 2.03823 13.422L9.99888 17.4023L17.9595 13.422C18.3712 13.2161 18.8717 13.383 19.0776 13.7946C19.2834 14.2063 19.1165 14.7068 18.7049 14.9127L10.3716 19.0793C10.137 19.1966 9.86081 19.1966 9.6262 19.0793L1.29287 14.9127C0.88122 14.7068 0.714367 14.2063 0.920191 13.7946Z" fill="#4B5563"/>
</g>
<defs>
<clipPath id="clip0_5900_12792">
<rect width="20" height="20" fill="white"/>
</clipPath>
</defs>
</svg>