<svg width="16" height="16" viewBox="0 0 16 16" fill="none" xmlns="http://www.w3.org/2000/svg">
<g id="icon_left">
<path id="Vector (Stroke)" d="M12.9355 10.068C13.9709 7.62597 13.0416 4.74129 10.677 3.38164C8.96835 2.39911 6.94189 2.46123 5.34324 3.36904L4.67909 2.21136C6.6774 1.07662 9.21042 0.998973 11.3463 2.22713C14.3518 3.9553 15.5022 7.6545 14.102 10.7387L15 11.2551L12.2125 12.7309L12.102 9.58871L12.9355 10.068ZM3.06446 5.93134C2.02913 8.37338 2.95842 11.258 5.32295 12.6177C7.03164 13.6002 9.05803 13.5381 10.6566 12.6304L11.3208 13.788C9.32252 14.9228 6.78957 15.0003 4.65369 13.7722C1.64828 12.044 0.497816 8.34485 1.89802 5.26061L1 4.74423L3.78752 3.26841L3.89799 6.41062L3.06446 5.93134ZM8.94646 9.885L7.05352 7.99964L5.16056 9.885L4.21409 8.94235L7.05352 6.11437L8.94646 7.99964L10.8395 6.11437L11.7859 7.057L8.94646 9.885Z" fill="#505152"/>
</g>
</svg>
