<svg width="16" height="16" viewBox="0 0 16 16" fill="none" xmlns="http://www.w3.org/2000/svg">
<path d="M5.89344 8.35055L4.13905 10.1049L5.89344 11.8593L7.64782 10.1049L5.89344 8.35055ZM10.104 1.33301C7.69863 1.33301 5.72813 3.19479 5.55493 5.55591C3.19381 5.72911 1.33203 7.6996 1.33203 10.1049C1.33203 12.6242 3.37424 14.6663 5.89344 14.6663C8.29877 14.6663 10.2693 12.8046 10.4425 10.4435C12.8036 10.2703 14.6654 8.29975 14.6654 5.89441C14.6654 3.37522 12.6232 1.33301 10.104 1.33301ZM10.3309 9.04431C9.93379 7.37694 8.62144 6.06455 6.95407 5.6675C7.07042 4.02935 8.43617 2.73652 10.104 2.73652C11.848 2.73652 13.2619 4.15036 13.2619 5.89441C13.2619 7.5622 11.969 8.92796 10.3309 9.04431ZM9.05133 10.1049C9.05133 11.849 7.63751 13.2628 5.89344 13.2628C4.14938 13.2628 2.73554 11.849 2.73554 10.1049C2.73554 8.36087 4.14938 6.94704 5.89344 6.94704C7.63751 6.94704 9.05133 8.36087 9.05133 10.1049ZM1.68291 4.4909C1.68291 2.94063 2.93965 1.68389 4.48993 1.68389H5.54256V3.08739H4.48993C3.71479 3.08739 3.08642 3.71577 3.08642 4.4909V5.54353H1.68291V4.4909ZM12.911 11.5084V10.4558H14.3145V11.5084C14.3145 13.0587 13.0577 14.3155 11.5075 14.3155H10.4548V12.912H11.5075C12.2826 12.912 12.911 12.2836 12.911 11.5084Z" fill="#DAE0F9"/>
</svg>
